# xmcd CD database file
#
# Track frame offsets:
#	150
#	17385
#	29682
#	50850
#	76050
#	93815
#	116765
#	142025
#	164632
#	195185
#
# Disc length: 2985 seconds
#
# Revision: 1
# Processed by: cddbd v1.5.2PL0 Copyright (c) Steve Scherf et al.
# Submitted via: CDex 1.70beta2
#
DISCID=7d0ba70a
DTITLE=Various Artist - Compilation Blues Justin Time (Fest. Int. de Jazz de Mtl)
DYEAR=1998
DGENRE=Blues
TTITLE0=Muddy Waters - Gypsy Woman
TTITLE1=Sonny Terry and Brownie McGhee - Hooray Hooray (These Women Is Killing Me)
TTITLE2=Lightnin' Hopkins - Trouble In Mind
TTITLE3=John Lee Hooker - Boom Boom
TTITLE4=James Cotton - It Ain't Right
TTITLE5=Big Mama Thornton - Spoonfull
TTITLE6=Taj Mahal - Corrine, Corrina
TTITLE7=Dave Van Ronk - Gambler's Blues
TTITLE8=Bryan Lee (Frank Marino, Kenny Wayne Shepherd) - Key To The Highway
TTITLE9=Montreal Jubilation Gospel Choir - Mary Don't You Weep
EXTD=YEAR: 1998
EXTT0=
EXTT1=
EXTT2=
EXTT3=
EXTT4=
EXTT5=
EXTT6=
EXTT7=
EXTT8=
EXTT9=
PLAYORDER=
